<?xml version="1.0" encoding="UTF-8" standalone="no"?>
<!DOCTYPE svg PUBLIC "-//W3C//DTD SVG 1.1//EN"
 "http://www.w3.org/Graphics/SVG/1.1/DTD/svg11.dtd">
<!-- Generated by graphviz version 2.40.1 (20161225.0304)
 -->
<!-- Title: G Pages: 1 -->
<svg width="2540pt" height="69pt"
 viewBox="0.00 0.00 2539.92 68.60" xmlns="http://www.w3.org/2000/svg" xmlns:xlink="http://www.w3.org/1999/xlink">
<g id="graph0" class="graph" transform="scale(1 1) rotate(0) translate(4 64.6)">
<title>G</title>
<polygon fill="#ffffff" stroke="transparent" points="-4,4 -4,-64.6 2535.9164,-64.6 2535.9164,4 -4,4"/>
<!-- node1 -->
<g id="node1" class="node">
<title>node1</title>
<polygon fill="none" stroke="#000000" points="0,-.5 0,-42.1 312.2316,-42.1 312.2316,-.5 0,-.5"/>
<text text-anchor="middle" x="156.1158" y="-25.5" font-family="Times,serif" font-size="14.00" fill="#000000">Accion: Se creó carpeta: / en el directorio: misFotos</text>
<text text-anchor="middle" x="156.1158" y="-8.7" font-family="Times,serif" font-size="14.00" fill="#000000">Fecha: 03/00/2023 0:23:21</text>
</g>
<!-- node2 -->
<g id="node2" class="node">
<title>node2</title>
<polygon fill="none" stroke="#000000" points="348.2316,-.5 348.2316,-42.1 681.4632,-42.1 681.4632,-.5 348.2316,-.5"/>
<text text-anchor="middle" x="514.8474" y="-25.5" font-family="Times,serif" font-size="14.00" fill="#000000">Accion: Se creó carpeta: /misFotos en el directorio: png</text>
<text text-anchor="middle" x="514.8474" y="-8.7" font-family="Times,serif" font-size="14.00" fill="#000000">Fecha: 03/00/2023 0:24:28</text>
</g>
<!-- node1&#45;&gt;node2 -->
<g id="edge1" class="edge">
<title>node1&#45;&gt;node2</title>
<path fill="none" stroke="#000000" d="M312.4171,-21.3C312.4171,-21.3 338.0164,-21.3 338.0164,-21.3"/>
<polygon fill="#000000" stroke="#000000" points="338.0165,-24.8001 348.0164,-21.3 338.0164,-17.8001 338.0165,-24.8001"/>
</g>
<!-- node3 -->
<g id="node3" class="node">
<title>node3</title>
<polygon fill="none" stroke="#000000" points="717.4632,-.5 717.4632,-42.1 1055.7418,-42.1 1055.7418,-.5 717.4632,-.5"/>
<text text-anchor="middle" x="886.6025" y="-25.5" font-family="Times,serif" font-size="14.00" fill="#000000">Accion: Se agregó archivo: blacky.png en el directorio: /</text>
<text text-anchor="middle" x="886.6025" y="-8.7" font-family="Times,serif" font-size="14.00" fill="#000000">Fecha: 03/00/2023 0:34:25</text>
</g>
<!-- node2&#45;&gt;node3 -->
<g id="edge2" class="edge">
<title>node2&#45;&gt;node3</title>
<path fill="none" stroke="#000000" d="M681.6949,-21.3C681.6949,-21.3 707.4252,-21.3 707.4252,-21.3"/>
<polygon fill="#000000" stroke="#000000" points="707.4253,-24.8001 717.4252,-21.3 707.4252,-17.8001 707.4253,-24.8001"/>
</g>
<!-- node4 -->
<g id="node4" class="node">
<title>node4</title>
<polygon fill="none" stroke="#000000" points="1091.7418,-.5 1091.7418,-42.1 1414.4664,-42.1 1414.4664,-.5 1091.7418,-.5"/>
<text text-anchor="middle" x="1253.1041" y="-25.5" font-family="Times,serif" font-size="14.00" fill="#000000">Accion: Se agregó archivo: hola.pdf en el directorio: /</text>
<text text-anchor="middle" x="1253.1041" y="-8.7" font-family="Times,serif" font-size="14.00" fill="#000000">Fecha: 03/00/2023 0:34:36</text>
</g>
<!-- node3&#45;&gt;node4 -->
<g id="edge3" class="edge">
<title>node3&#45;&gt;node4</title>
<path fill="none" stroke="#000000" d="M1055.9067,-21.3C1055.9067,-21.3 1081.6709,-21.3 1081.6709,-21.3"/>
<polygon fill="#000000" stroke="#000000" points="1081.6709,-24.8001 1091.6709,-21.3 1081.6709,-17.8001 1081.6709,-24.8001"/>
</g>
<!-- node5 -->
<g id="node5" class="node">
<title>node5</title>
<polygon fill="none" stroke="#000000" points="1450.4664,-.5 1450.4664,-42.1 1785.6328,-42.1 1785.6328,-.5 1450.4664,-.5"/>
<text text-anchor="middle" x="1618.0496" y="-25.5" font-family="Times,serif" font-size="14.00" fill="#000000">Accion: Se agregó archivo: hola(1).txt en el directorio: /</text>
<text text-anchor="middle" x="1618.0496" y="-8.7" font-family="Times,serif" font-size="14.00" fill="#000000">Fecha: 03/00/2023 0:34:51</text>
</g>
<!-- node4&#45;&gt;node5 -->
<g id="edge4" class="edge">
<title>node4&#45;&gt;node5</title>
<path fill="none" stroke="#000000" d="M1414.5025,-21.3C1414.5025,-21.3 1440.4354,-21.3 1440.4354,-21.3"/>
<polygon fill="#000000" stroke="#000000" points="1440.4354,-24.8001 1450.4354,-21.3 1440.4354,-17.8001 1440.4354,-24.8001"/>
</g>
<!-- node6 -->
<g id="node6" class="node">
<title>node6</title>
<polygon fill="none" stroke="#000000" points="1821.6328,-.5 1821.6328,-42.1 2150.9976,-42.1 2150.9976,-.5 1821.6328,-.5"/>
<text text-anchor="middle" x="1986.3152" y="-25.5" font-family="Times,serif" font-size="14.00" fill="#000000">Accion: Se otorgó permiso del archivo: /hola.pdf a : 70</text>
<text text-anchor="middle" x="1986.3152" y="-8.7" font-family="Times,serif" font-size="14.00" fill="#000000">Fecha: 03/00/2023 0:35:10</text>
</g>
<!-- node5&#45;&gt;node6 -->
<g id="edge5" class="edge">
<title>node5&#45;&gt;node6</title>
<path fill="none" stroke="#000000" d="M1785.7486,-21.3C1785.7486,-21.3 1811.422,-21.3 1811.422,-21.3"/>
<polygon fill="#000000" stroke="#000000" points="1811.4221,-24.8001 1821.422,-21.3 1811.422,-17.8001 1811.4221,-24.8001"/>
</g>
<!-- node7 -->
<g id="node7" class="node">
<title>node7</title>
<polygon fill="none" stroke="#000000" points="2186.9976,-.5 2186.9976,-42.1 2531.9164,-42.1 2531.9164,-.5 2186.9976,-.5"/>
<text text-anchor="middle" x="2359.457" y="-25.5" font-family="Times,serif" font-size="14.00" fill="#000000">Accion: Se otorgó permiso del archivo: /blacky.png a : 30</text>
<text text-anchor="middle" x="2359.457" y="-8.7" font-family="Times,serif" font-size="14.00" fill="#000000">Fecha: 03/00/2023 0:35:22</text>
</g>
<!-- node6&#45;&gt;node7 -->
<g id="edge6" class="edge">
<title>node6&#45;&gt;node7</title>
<path fill="none" stroke="#000000" d="M2151.0668,-21.3C2151.0668,-21.3 2176.9576,-21.3 2176.9576,-21.3"/>
<polygon fill="#000000" stroke="#000000" points="2176.9576,-24.8001 2186.9576,-21.3 2176.9575,-17.8001 2176.9576,-24.8001"/>
</g>
<!-- node7&#45;&gt;node1 -->
<g id="edge7" class="edge">
<title>node7&#45;&gt;node1</title>
<path fill="none" stroke="#000000" d="M2359.9164,-42.3306C2359.9164,-51.6745 2359.9164,-60.6 2359.9164,-60.6 2359.9164,-60.6 156.9164,-60.6 156.9164,-60.6 156.9164,-60.6 156.9164,-52.3306 156.9164,-52.3306"/>
<polygon fill="#000000" stroke="#000000" points="160.4165,-52.3306 156.9164,-42.3306 153.4165,-52.3307 160.4165,-52.3306"/>
</g>
</g>
</svg>
